HIERARCHY
ROOT Hips
{
	OFFSET -211.153198 91.653587 -35.738949
	CHANNELS 6 Xposition Yposition Zposition Zrotation Yrotation Xrotation 
	JOINT LeftUpLeg
	{
		OFFSET 0.103455 1.857827 10.548507
		CHANNELS 3 Zrotation Yrotation Xrotation
		JOINT LeftLeg
		{
			OFFSET 43.500000 -0.000031 0.000008
			CHANNELS 3 Zrotation Yrotation Xrotation
			JOINT LeftFoot
			{
				OFFSET 42.372192 0.000011 -0.000014
				CHANNELS 3 Zrotation Yrotation Xrotation
				JOINT LeftToe
				{
					OFFSET 17.299997 -0.000002 0.000013
					CHANNELS 3 Zrotation Yrotation Xrotation
					End Site
					{
						OFFSET 0.000000 0.000000 0.000000
					}
				}
			}
		}
	}
	JOINT RightUpLeg
	{
		OFFSET 0.103457 1.857826 -10.548499
		CHANNELS 3 Zrotation Yrotation Xrotation
		JOINT RightLeg
		{
			OFFSET 43.500046 -0.000019 0.000015
			CHANNELS 3 Zrotation Yrotation Xrotation
			JOINT RightFoot
			{
				OFFSET 42.372261 -0.000004 0.000013
				CHANNELS 3 Zrotation Yrotation Xrotation
				JOINT RightToe
				{
					OFFSET 17.299992 -0.000006 0.000004
					CHANNELS 3 Zrotation Yrotation Xrotation
					End Site
					{
						OFFSET 0.000000 0.000000 0.000000
					}
				}
			}
		}
	}
	JOINT Spine
	{
		OFFSET 6.901968 -2.603730 -0.000002
		CHANNELS 3 Zrotation Yrotation Xrotation
		JOINT Spine1
		{
			OFFSET 12.588100 -0.000001 0.000009
			CHANNELS 3 Zrotation Yrotation Xrotation
			JOINT Spine2
			{
				OFFSET 12.343201 0.000005 -0.000005
				CHANNELS 3 Zrotation Yrotation Xrotation
				JOINT Neck
				{
					OFFSET 25.832893 -0.000008 -0.000006
					CHANNELS 3 Zrotation Yrotation Xrotation
					JOINT Head
					{
						OFFSET 11.766606 0.000005 0.000008
						CHANNELS 3 Zrotation Yrotation Xrotation
						End Site
						{
							OFFSET 0.000000 0.000000 0.000000
						}
					}
				}
				JOINT LeftShoulder
				{
					OFFSET 19.745903 -1.480373 6.000100
					CHANNELS 3 Zrotation Yrotation Xrotation
					JOINT LeftArm
					{
						OFFSET 11.284123 -0.000007 -0.000024
						CHANNELS 3 Zrotation Yrotation Xrotation
						JOINT LeftForeArm
						{
							OFFSET 33.000053 0.000004 0.000036
							CHANNELS 3 Zrotation Yrotation Xrotation
							JOINT LeftHand
							{
								OFFSET 25.200006 0.000021 -0.000003
								CHANNELS 3 Zrotation Yrotation Xrotation
								End Site
								{
									OFFSET 0.000000 0.000000 0.000000
								}
							}
						}
					}
				}
				JOINT RightShoulder
				{
					OFFSET 19.746101 -1.480381 -6.000079
					CHANNELS 3 Zrotation Yrotation Xrotation
					JOINT RightArm
					{
						OFFSET 11.284133 -0.000015 -0.000008
						CHANNELS 3 Zrotation Yrotation Xrotation
						JOINT RightForeArm
						{
							OFFSET 33.000099 0.000016 0.000006
							CHANNELS 3 Zrotation Yrotation Xrotation
							JOINT RightHand
							{
								OFFSET 25.199781 0.000142 0.000425
								CHANNELS 3 Zrotation Yrotation Xrotation
								End Site
								{
									OFFSET 0.000000 0.000000 0.000000
								}
							}
						}
					}
				}
			}
		}
	}
}
MOTION
Frames: 14
Frame Time: 0.033333
-35.847969 16.288990 -409.399994 34.840587 33.014116 45.148479 105.598536 -2.769112 159.920902 -113.952212 2.790893 0.020057 69.060951 -2.786142 -7.577429 21.454551 0.003096 -0.000006 128.930175 22.663497 -160.313337 -154.481093 -6.403700 13.951069 105.909603 -8.369469 13.747522 21.454560 -0.003109 -0.000018 18.787984 2.774558 1.943450 27.689462 5.005181 4.497753 27.371121 5.032357 4.467496 15.842709 -17.047261 -2.207870 -18.249512 14.465273 -8.401047 178.207818 -81.175835 0.234633 30.885641 66.616631 39.960493 -23.627400 -12.944470 0.990200 41.247529 -34.900737 -39.185031 160.686894 73.430257 -18.373684 3.051707 -68.154571 -36.455465 -36.402610 14.137791 -1.339202 25.142959 46.026384 30.239286 
-34.833038 17.617809 -410.770386 35.097176 34.853690 50.291113 104.501928 1.160402 159.904427 -115.270111 3.230063 -3.883217 68.184330 0.163105 -7.131123 21.454548 0.003090 0.000001 133.613609 25.514800 -156.320422 -151.707709 -6.912065 15.159682 106.413500 -9.244780 13.733291 21.454557 -0.003109 -0.000018 19.043580 2.775831 1.833800 28.197184 5.022988 4.291743 27.878728 5.048926 4.261366 17.902068 -20.390500 -3.476831 -21.546745 14.960261 -10.188237 -177.995454 -80.208831 -3.600260 26.729469 66.376830 35.379434 -29.307908 -18.115185 1.415583 38.969692 -40.248061 -32.238530 163.625924 72.707794 -15.398183 4.559180 -66.192470 -36.599866 -37.079987 13.301050 -1.301092 17.322917 36.844107 25.879822 
-33.764820 19.875990 -411.911987 36.315146 35.353332 53.359688 102.106690 1.886511 161.084916 -117.967790 3.849122 -7.322433 68.668126 3.128261 -5.837655 21.454548 0.003097 0.000003 137.208078 27.052706 -154.212530 -147.999995 -7.067629 14.643564 106.001107 -8.911060 14.274431 21.454557 -0.003110 -0.000018 18.979820 2.210484 2.045895 28.040993 3.861133 4.568042 27.723215 3.888747 4.544706 20.965952 -21.170783 -3.722736 -23.811815 16.054647 -10.713858 -174.212622 -79.308516 -7.433253 18.251635 64.608644 27.973964 -31.415732 -19.446903 1.542900 37.239697 -43.726905 -28.422183 160.133894 73.327094 -18.944018 4.541337 -63.784077 -39.486522 -35.579668 11.930690 -1.176283 11.995247 23.613883 25.097658 
-33.125858 22.437000 -412.571686 38.396352 36.736022 55.201862 99.561093 0.642299 164.383010 -122.754209 4.202672 -6.540192 69.786679 3.000248 -4.569728 21.454555 0.003086 0.000002 140.933946 28.177088 -153.699856 -144.770299 -7.215212 14.015771 106.099899 -8.519606 15.141607 21.454560 -0.003111 -0.000018 18.962823 0.980954 2.190426 27.943287 1.405573 4.552732 27.626196 1.433143 4.544194 23.371704 -20.841354 -2.639802 -24.531154 16.067842 -9.215699 -174.062631 -78.502752 -7.579711 12.952957 60.899736 20.387616 -33.614452 -18.751530 1.545778 34.222410 -46.941250 -23.208694 155.108514 73.487993 -24.070490 1.472351 -61.906144 -37.432503 -32.485554 9.904181 -0.975887 6.675315 8.371797 21.106704 
-32.651520 24.986589 -412.628204 40.424847 39.172829 57.081677 98.106959 0.719496 171.020273 -129.481399 4.457964 -3.115379 71.304955 1.167037 -2.614921 21.454553 0.003088 0.000001 146.185077 30.973904 -153.635352 -141.743501 -6.984242 12.234743 106.443205 -7.427654 14.528448 21.454558 -0.003108 -0.000017 19.090681 -0.246508 2.246821 28.149744 -1.030523 4.366663 27.832613 -1.004021 4.372816 25.145910 -20.977329 -1.474871 -25.006461 17.422347 -8.290744 -175.410883 -76.988847 -6.192022 7.243952 55.797294 14.569569 -32.332767 -18.396619 1.494949 32.374588 -48.223550 -20.925085 146.582840 74.051395 -32.728316 -2.982936 -62.573091 -35.732784 -28.586732 8.048701 -0.778426 4.664915 0.789474 5.966268 
-32.254551 27.310221 -412.243713 43.267233 41.652502 59.620988 97.879001 1.642305 -179.857090 -137.798493 4.665882 -3.064656 75.378343 1.123403 -2.690882 21.454551 0.003093 -0.000001 151.002205 34.151902 -154.066501 -139.207301 -6.515968 10.457421 106.761191 -6.342189 12.920780 21.454558 -0.003110 -0.000018 19.134601 -1.424857 2.551854 28.197949 -3.426674 4.682655 27.880412 -3.398241 4.703243 26.187113 -19.242564 -0.693958 -24.678956 19.030534 -8.011273 -178.574545 -76.446646 -2.956093 2.314670 51.035990 9.014167 -30.619311 -17.989323 1.433312 29.209355 -48.992110 -16.641652 141.218847 74.292036 -38.166100 -4.901422 -64.475825 -36.655119 -26.241348 8.822482 -0.789265 2.965053 1.595106 -6.876772 
-31.661369 29.255470 -412.046112 47.688575 42.807398 61.292909 99.628957 -0.313000 -167.291728 -144.737897 4.540652 -4.315356 82.004344 2.201747 -2.273458 21.454553 0.003098 0.000002 149.954741 35.652693 -159.943564 -137.736106 -6.039424 7.167028 104.390808 -3.920556 12.891169 21.454560 -0.003108 -0.000017 18.884573 -2.861721 3.257283 27.636371 -6.416110 5.746313 27.317890 -6.381217 5.784941 26.227969 -17.636870 -0.304476 -24.480986 21.279666 -8.656681 176.954123 -76.326346 1.611304 -2.020316 46.105724 3.826692 -29.033024 -16.789238 1.325752 25.618353 -49.093976 -11.651200 139.025495 74.930338 -40.347410 -8.470835 -65.556702 -33.574054 -25.362229 8.041195 -0.723975 2.683617 1.311569 -9.746698 
-30.882669 30.413321 -411.977386 52.999447 42.979095 63.712469 103.891385 -3.017998 -152.485121 -147.215999 4.097388 -2.436629 86.200860 0.873573 -2.708508 21.454553 0.003101 -0.000001 146.523335 37.236993 -170.814452 -136.904394 -5.045056 -1.416956 102.771104 2.047049 12.990350 21.454562 -0.003110 -0.000017 18.627949 -4.124931 3.676261 27.075360 -8.992543 6.303159 26.755113 -8.954265 6.357488 25.553170 -16.273535 -0.399199 -24.632795 22.741999 -9.645313 169.820988 -75.769973 8.908872 -5.364433 41.145968 -0.056623 -26.336622 -15.160961 1.174005 24.231247 -48.355803 -10.145227 134.022409 75.270638 -45.392450 -14.199986 -64.509190 -26.785893 -25.340284 7.948050 -0.717509 2.882001 -2.380893 -11.367868 
-29.790850 31.200010 -412.595398 57.220852 41.421566 67.698397 107.308119 -4.750700 -141.240280 -145.565511 3.876891 -0.178621 90.121450 -0.319450 -1.096356 21.454551 0.003095 -0.000003 144.605692 36.631599 -173.883830 -134.736901 -5.024544 -2.718423 103.980785 2.843547 14.618516 21.454557 -0.003108 -0.000018 18.400246 -4.683176 3.566760 26.623789 -10.058372 5.980441 26.302251 -10.022011 6.041375 25.013106 -13.220465 -0.267867 -25.540480 23.302447 -10.212191 164.226339 -75.139307 14.644083 -8.418793 37.466873 -3.654695 -23.247444 -13.857250 1.043074 22.860715 -46.808157 -9.529320 130.331771 74.590549 -49.180538 -20.695103 -59.923333 -19.311576 -24.436450 8.576796 -0.745056 2.681165 -1.289555 -15.922581 
-29.037580 31.821810 -414.017792 59.985494 38.170960 72.787475 108.952965 -5.854303 -136.310577 -141.322802 3.728742 0.974072 91.247304 -1.019870 -0.672718 21.454553 0.003082 0.000001 143.697044 34.548207 -170.103512 -132.780394 -5.326078 1.804280 106.346694 -0.503169 17.872530 21.454560 -0.003109 -0.000018 18.217393 -4.571939 3.191385 26.289381 -9.746887 5.277067 25.967741 -9.714759 5.336177 23.546278 -8.118243 0.229685 -25.603451 24.328630 -10.523332 157.682294 -75.242682 21.315157 -11.326907 34.571494 -4.068704 -20.629248 -11.575967 0.862556 24.984612 -44.326958 -14.065315 127.667943 74.385828 -51.890795 -24.923623 -54.558858 -8.201743 -23.308775 9.575386 -0.793882 2.619950 4.279572 -16.180361 
-28.467150 32.512470 -416.035797 62.249244 34.207490 78.630661 108.183107 -7.755798 -135.822341 -135.163297 3.772048 3.855195 97.383512 -4.207036 -13.094497 21.454548 0.003088 -0.000000 140.278999 32.192505 -168.143903 -130.999900 -5.631025 5.003177 103.859003 -2.203099 20.806524 21.454558 -0.003107 -0.000019 18.271171 -4.208033 2.774518 26.430923 -8.936481 4.526747 26.109694 -8.908878 4.580925 20.108116 -1.528494 -0.008514 -24.993698 24.636940 -11.039206 144.476888 -75.963581 34.706196 -14.163850 33.718988 -4.570165 -19.407581 -10.493211 0.778657 26.594439 -42.678765 -18.381771 126.272863 74.992294 -53.250771 -27.182020 -49.728531 5.426045 -24.755519 11.817390 -0.960262 5.757033 10.999888 -7.416341 
-28.053049 33.604679 -417.328094 65.328505 31.237081 84.821251 102.662039 -4.047312 -139.116105 -133.028494 3.674327 3.780709 95.676771 -3.978601 -9.918469 21.454553 0.003090 0.000002 138.667143 32.983988 -166.052089 -129.419012 -5.843171 7.524244 103.336807 -3.841140 20.570742 21.454557 -0.003110 -0.000017 18.718253 -4.055757 2.203398 27.371420 -8.515833 3.393796 27.050100 -8.495061 3.445466 15.073901 4.058358 -0.511623 -24.703358 25.086790 -11.519903 130.311554 -75.944532 49.056031 -16.819585 32.931368 -5.942834 -19.064607 -10.366771 0.766728 28.898486 -40.958336 -22.521579 123.091142 75.744544 -56.398658 -28.318948 -45.613608 19.933685 -29.025323 14.295780 -1.192137 11.147054 12.946790 11.870229 
-27.453051 34.942299 -419.184814 69.422466 30.492813 88.256856 99.488583 -4.149711 -148.035130 -130.312605 4.063981 2.183515 91.887245 -2.178055 -2.857259 21.454551 0.003093 -0.000004 135.804515 33.637599 -168.002067 -127.756708 -5.791492 9.630955 101.757299 -5.085038 19.070008 21.454560 -0.003107 -0.000017 19.718085 -4.384760 1.891405 29.410856 -9.104424 2.615063 29.088717 -9.088333 2.670425 11.258010 6.325640 -1.926625 -25.198431 24.638354 -12.610042 121.633143 -74.871987 57.905053 -20.468888 30.541191 -8.873834 -18.307762 -10.178009 0.746536 30.603178 -38.638855 -25.507608 118.816263 76.663525 -60.626385 -29.332241 -40.608302 33.190939 -34.478484 16.681228 -1.458700 14.611960 11.189453 27.544722 
-26.938030 36.480122 -421.007294 72.181671 28.323247 91.464648 98.086503 -4.737899 -151.188778 -127.074003 4.037964 -0.173606 92.333830 -1.281898 -8.087590 21.454553 0.003096 0.000000 133.149142 33.632203 -168.982664 -125.399910 -5.748999 10.702136 100.331709 -5.614230 18.926982 21.454558 -0.003109 -0.000018 20.233657 -4.258295 1.629960 30.462992 -8.793922 2.089282 30.141020 -8.781010 2.142761 8.667742 4.428799 -3.620682 -26.172067 24.818358 -14.778060 114.461649 -74.442635 65.162785 -24.609184 28.257575 -9.678784 -17.407842 -9.938204 0.722110 33.150016 -32.334068 -29.363253 110.484799 77.281746 -68.942584 -28.490145 -36.634785 47.137509 -42.739328 17.717751 -1.738423 16.142300 13.227130 33.101344 
